<svg width="76" height="16" viewBox="0 0 76 16" fill="none" xmlns="http://www.w3.org/2000/svg">
<path d="M47.0735 1.42693V3.71795H45.6375V5.22039H47.0735V10.3254C47.0735 12.0685 47.8621 12.7658 49.846 12.7658C50.1946 12.7658 50.5267 12.7243 50.8172 12.6745V11.1887C50.5682 11.2136 50.4104 11.2302 50.1365 11.2302C49.2483 11.2302 48.8582 10.8151 48.8582 9.86883V5.22039H50.8172V3.71795H48.8582V1.42693H47.0735Z" fill="white"/>
<path d="M55.871 12.8903C58.5107 12.8903 60.1293 11.1222 60.1293 8.19207C60.1293 5.2785 58.5024 3.50213 55.871 3.50213C53.2314 3.50213 51.6044 5.2785 51.6044 8.19207C51.6044 11.1222 53.2231 12.8903 55.871 12.8903ZM55.871 11.3049C54.3188 11.3049 53.4472 10.1677 53.4472 8.19207C53.4472 6.23309 54.3188 5.08758 55.871 5.08758C57.415 5.08758 58.2949 6.23309 58.2949 8.19207C58.2949 10.1594 57.415 11.3049 55.871 11.3049Z" fill="white"/>
<path d="M61.5142 12.716H63.2989V7.37859C63.2989 6.10857 64.2535 5.25359 65.6065 5.25359C65.922 5.25359 66.4532 5.3117 66.6026 5.3615V3.60174C66.4117 3.55193 66.0714 3.52703 65.8057 3.52703C64.627 3.52703 63.6226 4.17449 63.3653 5.06268H63.2325V3.67645H61.5142V12.716Z" fill="white"/>
<path d="M71.0339 5.02117C72.3537 5.02117 73.217 5.94256 73.2585 7.36199H68.6931C68.7927 5.95086 69.7141 5.02117 71.0339 5.02117ZM73.2502 10.2756C72.9182 10.9811 72.1794 11.3713 71.1003 11.3713C69.6726 11.3713 68.7512 10.3669 68.6931 8.78143V8.68182H75.0764V8.05926C75.0764 5.22039 73.5573 3.50213 71.0422 3.50213C68.4939 3.50213 66.8752 5.3366 66.8752 8.22527C66.8752 11.1139 68.4607 12.8903 71.0505 12.8903C73.1174 12.8903 74.5617 11.8942 74.9685 10.2756H73.2502Z" fill="white"/>
<path d="M35.3699 9.37783C35.5076 11.5975 37.3574 13.0171 40.1105 13.0171C43.0529 13.0171 44.894 11.5287 44.894 9.15414C44.894 7.28718 43.8444 6.25476 41.2978 5.66111L39.9298 5.32558C38.3124 4.94702 37.6585 4.43941 37.6585 3.55325C37.6585 2.4348 38.6737 1.7035 40.1965 1.7035C41.6419 1.7035 42.6399 2.41759 42.8206 3.56186H44.6962C44.5843 1.4712 42.7432 0 40.2223 0C37.5122 0 35.7055 1.4712 35.7055 3.6823C35.7055 5.50625 36.7293 6.59029 38.9748 7.11511L40.5751 7.50227C42.2183 7.88942 42.941 8.45726 42.941 9.40364C42.941 10.5049 41.8054 11.305 40.2567 11.305C38.5963 11.305 37.4434 10.5565 37.2799 9.37783H35.3699Z" fill="white"/>
<path d="M16.8826 3.52703C15.6541 3.52703 14.5916 4.14129 14.0437 5.17059H13.9109V3.67645H12.1927V15.7209H13.9773V11.3464H14.1185C14.5916 12.301 15.6126 12.8654 16.8992 12.8654C19.1819 12.8654 20.6346 11.0641 20.6346 8.19207C20.6346 5.32 19.1819 3.52703 16.8826 3.52703ZM16.3763 11.2634C14.8821 11.2634 13.9441 10.0846 13.9441 8.20037C13.9441 6.30779 14.8821 5.12908 16.3846 5.12908C17.8953 5.12908 18.8001 6.28289 18.8001 8.19207C18.8001 10.1096 17.8953 11.2634 16.3763 11.2634Z" fill="white"/>
<path d="M26.8794 3.52703C25.6509 3.52703 24.5884 4.14129 24.0405 5.17059H23.9077V3.67645H22.1895V15.7209H23.9741V11.3464H24.1153C24.5884 12.301 25.6094 12.8654 26.896 12.8654C29.1787 12.8654 30.6314 11.0641 30.6314 8.19207C30.6314 5.32 29.1787 3.52703 26.8794 3.52703ZM26.3731 11.2634C24.8789 11.2634 23.9409 10.0846 23.9409 8.20037C23.9409 6.30779 24.8789 5.12908 26.3814 5.12908C27.8921 5.12908 28.7969 6.28289 28.7969 8.19207C28.7969 10.1096 27.8921 11.2634 26.3731 11.2634Z" fill="white"/>
<path d="M8.99067 12.716H11.0383L6.55588 0.301123H4.48243L0 12.716H1.97881L3.12308 9.42085H7.85501L8.99067 12.716ZM5.42022 2.55524H5.56647L7.36461 7.80339H3.61348L5.42022 2.55524Z" fill="white"/>
</svg>
