<svg width="40" height="7" viewBox="0 0 40 7" fill="none" xmlns="http://www.w3.org/2000/svg">
<path d="M6.166 3.47793C6.166 4.31593 5.918 4.98293 5.421 5.48093C4.857 6.07293 4.121 6.36893 3.217 6.36893C2.351 6.36893 1.614 6.06893 1.009 5.46893C0.403001 4.86793 0.1 4.12393 0.1 3.23593C0.1 2.34693 0.403001 1.60293 1.009 1.00293C1.614 0.401929 2.351 0.10193 3.217 0.10193C3.647 0.10193 4.058 0.185929 4.448 0.352929C4.839 0.520929 5.152 0.743929 5.386 1.02293L4.859 1.55093C4.462 1.07593 3.915 0.838929 3.216 0.838929C2.584 0.838929 2.038 1.06093 1.577 1.50493C1.116 1.94893 0.886 2.52593 0.886 3.23493C0.886 3.94393 1.116 4.52093 1.577 4.96493C2.038 5.40893 2.584 5.63093 3.216 5.63093C3.886 5.63093 4.445 5.40793 4.892 4.96093C5.182 4.66993 5.35 4.26493 5.395 3.74593H3.216V3.02493H6.123C6.153 3.18193 6.166 3.33293 6.166 3.47793Z" fill="white"/>
<path d="M10.7761 0.971985H8.0441V2.87399H10.5081V3.59499H8.0441V5.49698H10.7761V6.23499H7.2731V0.234986H10.7761V0.971985Z" fill="white"/>
<path d="M14.027 6.23499H13.256V0.971985H11.58V0.234986H15.703V0.971985H14.027V6.23499Z" fill="white"/>
<path d="M18.6859 6.23499V0.234986H19.4569V6.23499H18.6859Z" fill="white"/>
<path d="M22.8761 6.23499H22.1051V0.971985H20.4291V0.234986H24.5521V0.971985H22.8761V6.23499Z" fill="white"/>
<path d="M32.3569 5.45998C31.7669 6.06598 31.0339 6.36898 30.1569 6.36898C29.2799 6.36898 28.5469 6.06598 27.9579 5.45998C27.3679 4.85398 27.0739 4.11198 27.0739 3.23498C27.0739 2.35798 27.3679 1.61598 27.9579 1.00998C28.5469 0.403975 29.2799 0.0999756 30.1569 0.0999756C31.0289 0.0999756 31.7609 0.404975 32.3529 1.01398C32.9449 1.62298 33.2409 2.36298 33.2409 3.23498C33.2409 4.11198 32.9459 4.85398 32.3569 5.45998ZM28.5269 4.95698C28.9709 5.40698 29.5139 5.63098 30.1569 5.63098C30.7999 5.63098 31.3439 5.40598 31.7869 4.95698C32.2309 4.50698 32.4539 3.93298 32.4539 3.23498C32.4539 2.53698 32.2309 1.96298 31.7869 1.51298C31.3439 1.06298 30.7999 0.838976 30.1569 0.838976C29.5139 0.838976 28.9709 1.06398 28.5269 1.51298C28.0839 1.96298 27.8609 2.53698 27.8609 3.23498C27.8609 3.93298 28.0839 4.50698 28.5269 4.95698Z" fill="white"/>
<path d="M34.3229 6.23499V0.234986H35.2609L38.1769 4.90199H38.2099L38.1769 3.74599V0.234986H38.9479V6.23499H38.1429L35.0919 1.34099H35.0589L35.0919 2.49698V6.23499H34.3229Z" fill="white"/>
<path d="M6.166 3.47793C6.166 4.31593 5.918 4.98293 5.421 5.48093C4.857 6.07293 4.121 6.36893 3.217 6.36893C2.351 6.36893 1.614 6.06893 1.009 5.46893C0.403001 4.86793 0.1 4.12393 0.1 3.23593C0.1 2.34693 0.403001 1.60293 1.009 1.00293C1.614 0.401929 2.351 0.10193 3.217 0.10193C3.647 0.10193 4.058 0.185929 4.448 0.352929C4.839 0.520929 5.152 0.743929 5.386 1.02293L4.859 1.55093C4.462 1.07593 3.915 0.838929 3.216 0.838929C2.584 0.838929 2.038 1.06093 1.577 1.50493C1.116 1.94893 0.886 2.52593 0.886 3.23493C0.886 3.94393 1.116 4.52093 1.577 4.96493C2.038 5.40893 2.584 5.63093 3.216 5.63093C3.886 5.63093 4.445 5.40793 4.892 4.96093C5.182 4.66993 5.35 4.26493 5.395 3.74593H3.216V3.02493H6.123C6.153 3.18193 6.166 3.33293 6.166 3.47793Z" stroke="white" stroke-width="0.2" stroke-miterlimit="10"/>
<path d="M10.7761 0.971985H8.0441V2.87399H10.5081V3.59499H8.0441V5.49698H10.7761V6.23499H7.2731V0.234986H10.7761V0.971985Z" stroke="white" stroke-width="0.2" stroke-miterlimit="10"/>
<path d="M14.027 6.23499H13.256V0.971985H11.58V0.234986H15.703V0.971985H14.027V6.23499Z" stroke="white" stroke-width="0.2" stroke-miterlimit="10"/>
<path d="M18.6859 6.23499V0.234986H19.4569V6.23499H18.6859Z" stroke="white" stroke-width="0.2" stroke-miterlimit="10"/>
<path d="M22.8761 6.23499H22.1051V0.971985H20.4291V0.234986H24.5521V0.971985H22.8761V6.23499Z" stroke="white" stroke-width="0.2" stroke-miterlimit="10"/>
<path d="M32.3569 5.45998C31.7669 6.06598 31.0339 6.36898 30.1569 6.36898C29.2799 6.36898 28.5469 6.06598 27.9579 5.45998C27.3679 4.85398 27.0739 4.11198 27.0739 3.23498C27.0739 2.35798 27.3679 1.61598 27.9579 1.00998C28.5469 0.403975 29.2799 0.0999756 30.1569 0.0999756C31.0289 0.0999756 31.7609 0.404975 32.3529 1.01398C32.9449 1.62298 33.2409 2.36298 33.2409 3.23498C33.2409 4.11198 32.9459 4.85398 32.3569 5.45998ZM28.5269 4.95698C28.9709 5.40698 29.5139 5.63098 30.1569 5.63098C30.7999 5.63098 31.3439 5.40598 31.7869 4.95698C32.2309 4.50698 32.4539 3.93298 32.4539 3.23498C32.4539 2.53698 32.2309 1.96298 31.7869 1.51298C31.3439 1.06298 30.7999 0.838976 30.1569 0.838976C29.5139 0.838976 28.9709 1.06398 28.5269 1.51298C28.0839 1.96298 27.8609 2.53698 27.8609 3.23498C27.8609 3.93298 28.0839 4.50698 28.5269 4.95698Z" stroke="white" stroke-width="0.2" stroke-miterlimit="10"/>
<path d="M34.3229 6.23499V0.234986H35.2609L38.1769 4.90199H38.2099L38.1769 3.74599V0.234986H38.9479V6.23499H38.1429L35.0919 1.34099H35.0589L35.0919 2.49698V6.23499H34.3229Z" stroke="white" stroke-width="0.2" stroke-miterlimit="10"/>
</svg>
