<svg width="24" height="26" viewBox="0 0 24 26" fill="none" xmlns="http://www.w3.org/2000/svg">
<path fill-rule="evenodd" clip-rule="evenodd" d="M0.183371 0.825536C0.0652517 1.09304 0 1.42081 0 1.80207V23.9181C0 24.3001 0.0653073 24.6278 0.183521 24.8952L12.2174 12.8596L0.183371 0.825536ZM0.878445 25.6145C1.32452 25.8054 1.90644 25.7449 2.541 25.3851L16.6981 17.3403L12.9245 13.5667L0.878445 25.6145ZM17.6006 16.8285L22.042 14.3051C23.439 13.5101 23.439 12.2111 22.042 11.4171L17.5984 8.89212L13.6316 12.8595L17.6006 16.8285ZM16.6967 8.37971L2.541 0.336076C1.90647 -0.0244987 1.32458 -0.0846642 0.878516 0.106468L12.9245 12.1524L16.6967 8.37971Z" fill="white"/>
</svg>
