<svg width="85" height="18" viewBox="0 0 85 18" fill="none" xmlns="http://www.w3.org/2000/svg">
<path d="M27.094 4.704C24.742 4.704 22.825 6.493 22.825 8.957C22.825 11.406 24.742 13.21 27.094 13.21C29.447 13.21 31.364 11.406 31.364 8.957C31.363 6.493 29.446 4.704 27.094 4.704ZM27.094 11.536C25.805 11.536 24.694 10.473 24.694 8.958C24.694 7.427 25.806 6.38 27.094 6.38C28.383 6.38 29.494 7.427 29.494 8.958C29.494 10.472 28.383 11.536 27.094 11.536ZM17.78 4.704C15.428 4.704 13.511 6.493 13.511 8.957C13.511 11.406 15.428 13.21 17.78 13.21C20.133 13.21 22.05 11.406 22.05 8.957C22.05 6.493 20.133 4.704 17.78 4.704ZM17.78 11.536C16.491 11.536 15.38 10.473 15.38 8.958C15.38 7.427 16.492 6.38 17.78 6.38C19.069 6.38 20.18 7.427 20.18 8.958C20.181 10.472 19.069 11.536 17.78 11.536ZM6.702 6.01V7.814H11.02C10.891 8.829 10.553 9.57 10.037 10.085C9.409 10.713 8.426 11.406 6.702 11.406C4.044 11.406 1.966 9.263 1.966 6.605C1.966 3.947 4.044 1.804 6.702 1.804C8.136 1.804 9.183 2.368 9.956 3.093L11.229 1.82C10.149 0.789001 8.716 8.8501e-07 6.702 8.8501e-07C3.061 8.8501e-07 -1.83105e-07 2.964 -1.83105e-07 6.605C-1.83105e-07 10.246 3.061 13.21 6.702 13.21C8.667 13.21 10.15 12.565 11.309 11.357C12.501 10.165 12.872 8.489 12.872 7.136C12.872 6.718 12.84 6.331 12.775 6.009H6.702V6.01ZM52.01 7.411C51.656 6.461 50.576 4.704 48.369 4.704C46.178 4.704 44.357 6.428 44.357 8.957C44.357 11.341 46.162 13.21 48.578 13.21C50.527 13.21 51.655 12.018 52.123 11.325L50.673 10.358C50.19 11.067 49.529 11.534 48.578 11.534C47.628 11.534 46.951 11.099 46.516 10.245L52.203 7.893L52.01 7.411ZM46.21 8.829C46.162 7.185 47.483 6.348 48.434 6.348C49.175 6.348 49.803 6.719 50.013 7.25L46.21 8.829ZM41.587 12.953H43.455V0.452001H41.587V12.953ZM38.525 5.655H38.461C38.042 5.155 37.236 4.704 36.222 4.704C34.095 4.704 32.146 6.573 32.146 8.974C32.146 11.358 34.095 13.211 36.222 13.211C37.237 13.211 38.042 12.76 38.461 12.245H38.525V12.857C38.525 14.484 37.655 15.354 36.254 15.354C35.11 15.354 34.401 14.533 34.111 13.84L32.484 14.517C32.951 15.644 34.191 17.03 36.254 17.03C38.445 17.03 40.298 15.741 40.298 12.599V4.963H38.526V5.655H38.525ZM36.383 11.536C35.094 11.536 34.015 10.456 34.015 8.974C34.015 7.475 35.094 6.38 36.383 6.38C37.655 6.38 38.654 7.475 38.654 8.974C38.654 10.456 37.655 11.536 36.383 11.536ZM60.764 0.452001H56.293V12.953H58.158V8.217H60.763C62.831 8.217 64.865 6.72 64.865 4.335C64.865 1.95 62.832 0.452001 60.764 0.452001ZM60.812 6.477H58.158V2.192H60.812C62.207 2.192 62.999 3.347 62.999 4.335C62.999 5.303 62.207 6.477 60.812 6.477ZM72.344 4.682C70.993 4.682 69.594 5.277 69.015 6.596L70.671 7.287C71.025 6.596 71.685 6.37 72.376 6.37C73.341 6.37 74.322 6.949 74.338 7.978V8.107C74 7.914 73.276 7.625 72.392 7.625C70.607 7.625 68.789 8.606 68.789 10.439C68.789 12.112 70.253 13.189 71.893 13.189C73.147 13.189 73.839 12.626 74.273 11.966H74.337V12.931H76.139V8.138C76.14 5.92 74.482 4.682 72.344 4.682ZM72.118 11.533C71.508 11.533 70.655 11.227 70.655 10.471C70.655 9.506 71.717 9.136 72.634 9.136C73.453 9.136 73.84 9.313 74.338 9.554C74.193 10.713 73.196 11.533 72.118 11.533ZM82.701 4.955L80.562 10.375H80.498L78.278 4.955H76.268L79.597 12.53L77.699 16.744H79.645L84.776 4.955H82.701ZM65.895 12.953H67.76V0.452001H65.895V12.953Z" fill="white"/>
</svg>
